<?xml version="1.0" encoding="utf-8"?>
<!-- Generator: Adobe Illustrator 16.0.3, SVG Export Plug-In . SVG Version: 6.00 Build 0)  -->
<!DOCTYPE svg PUBLIC "-//W3C//DTD SVG 1.1//EN" "http://www.w3.org/Graphics/SVG/1.1/DTD/svg11.dtd">
<svg version="1.1" id="Layer_1" xmlns="http://www.w3.org/2000/svg" xmlns:xlink="http://www.w3.org/1999/xlink" x="0px" y="0px"
	 width="28px" height="28px" viewBox="0 0 28 28" style="enable-background:new 0 0 28 28;" xml:space="preserve">
<style type="text/css">
<![CDATA[
	.st0{fill:#333333;}
]]>
</style>
<path class="st0" d="M28,14c0,7.719-6.281,14-14,14C6.279,28,0,21.719,0,14C0,6.279,6.279,0,14,0C21.719,0,28,6.279,28,14z
	 M1.076,14c0,7.125,5.799,12.922,12.924,12.922S26.922,21.125,26.922,14c0-7.127-5.797-12.924-12.922-12.924S1.076,6.873,1.076,14z
	 M12.303,8.234c-0.209-0.211-0.551-0.211-0.76,0c-0.211,0.211-0.211,0.551,0,0.762L16.547,14l-5.004,5.004
	c-0.211,0.211-0.211,0.551,0,0.762c0.209,0.209,0.551,0.209,0.76,0L18.068,14L12.303,8.234z"/>
</svg>
