<?xml version="1.0" encoding="utf-8"?>
<!-- Generator: Adobe Illustrator 16.0.3, SVG Export Plug-In . SVG Version: 6.00 Build 0)  -->
<!DOCTYPE svg PUBLIC "-//W3C//DTD SVG 1.1//EN" "http://www.w3.org/Graphics/SVG/1.1/DTD/svg11.dtd">
<svg version="1.1" id="Layer_1" xmlns="http://www.w3.org/2000/svg" xmlns:xlink="http://www.w3.org/1999/xlink" x="0px" y="0px"
	 width="28px" height="28px" viewBox="0 0 28 28" style="enable-background:new 0 0 28 28;" xml:space="preserve">
<style type="text/css">
<![CDATA[
	.st0{fill:#333333;}
]]>
</style>
<path class="st0" d="M14,28C6.281,28,0,21.72,0,14S6.281,0,14,0c7.721,0,14,6.28,14,14S21.721,28,14,28z M14,1.077
	C6.875,1.077,1.077,6.875,1.077,14c0,7.125,5.798,12.923,12.923,12.923c7.127,0,12.924-5.798,12.924-12.923
	C26.924,6.875,21.127,1.077,14,1.077z M19.766,12.304c0.211-0.21,0.211-0.551,0-0.761s-0.551-0.21-0.762,0L14,16.547l-5.004-5.004
	c-0.211-0.21-0.551-0.21-0.762,0c-0.209,0.21-0.209,0.551,0,0.761L14,18.069L19.766,12.304z"/>
</svg>
