<?xml version="1.0" encoding="UTF-8" standalone="no"?>
<svg width="29px" height="29px" viewBox="0 0 29 29" version="1.1" xmlns="http://www.w3.org/2000/svg" xmlns:xlink="http://www.w3.org/1999/xlink">
    <!-- Generator: Sketch 3.6.1 (26313) - http://www.bohemiancoding.com/sketch -->
    <title>Slice 1</title>
    <desc>Created with Sketch.</desc>
    <defs></defs>
    <g id="Page-1" stroke="none" stroke-width="1" fill="none" fill-rule="evenodd">
        <g id="arrow-round--right" transform="translate(0.000000, 1.000000)" fill="#333333">
            <path d="M28,14 C28,21.719 21.719,28 14,28 C6.279,28 5.32907052e-15,21.719 5.32907052e-15,14 C5.32907052e-15,6.279 6.279,-1.77635684e-15 14,-1.77635684e-15 C21.719,-1.77635684e-15 28,6.279 28,14 L28,14 Z M1.076,14 C1.076,21.125 6.875,26.922 14,26.922 C21.125,26.922 26.922,21.125 26.922,14 C26.922,6.873 21.125,1.076 14,1.076 C6.875,1.076 1.076,6.873 1.076,14 L1.076,14 Z M12.303,8.234 C12.094,8.023 11.752,8.023 11.543,8.234 C11.332,8.445 11.332,8.785 11.543,8.996 L16.547,14 L11.543,19.004 C11.332,19.215 11.332,19.555 11.543,19.766 C11.752,19.975 12.094,19.975 12.303,19.766 L18.068,14 L12.303,8.234 L12.303,8.234 Z" id="Shape" transform="translate(14.000000, 14.000000) rotate(-180.000000) translate(-14.000000, -14.000000) "></path>
        </g>
    </g>
</svg>