<?xml version="1.0" encoding="utf-8"?>
<!-- Generator: Adobe Illustrator 16.0.3, SVG Export Plug-In . SVG Version: 6.00 Build 0)  -->
<!DOCTYPE svg PUBLIC "-//W3C//DTD SVG 1.1//EN" "http://www.w3.org/Graphics/SVG/1.1/DTD/svg11.dtd">
<svg version="1.1" id="Layer_1" xmlns="http://www.w3.org/2000/svg" xmlns:xlink="http://www.w3.org/1999/xlink" x="0px" y="0px"
	 width="28px" height="28px" viewBox="0 0 28 28" style="enable-background:new 0 0 28 28;" xml:space="preserve">
<style type="text/css">
<![CDATA[
	.st0{fill:#333333;}
]]>
</style>
<path class="st0" d="M28,14c0,7.72-6.279,14-14,14C6.281,28,0,21.72,0,14S6.281,0,14,0C21.721,0,28,6.28,28,14z M26.924,14
	c0-7.125-5.797-12.923-12.924-12.923C6.875,1.077,1.078,6.875,1.078,14c0,7.125,5.797,12.923,12.922,12.923
	C21.127,26.923,26.924,21.125,26.924,14z M14,9.931l-5.766,5.766c-0.209,0.21-0.209,0.551,0,0.761c0.211,0.211,0.551,0.211,0.762,0
	L14,11.454l5.004,5.003c0.211,0.211,0.551,0.211,0.762,0c0.211-0.21,0.211-0.551,0-0.761L14,9.931z"/>
</svg>
