<?xml version="1.0" encoding="utf-8"?>
<!-- Generator: Adobe Illustrator 16.0.3, SVG Export Plug-In . SVG Version: 6.00 Build 0)  -->
<!DOCTYPE svg PUBLIC "-//W3C//DTD SVG 1.1//EN" "http://www.w3.org/Graphics/SVG/1.1/DTD/svg11.dtd">
<svg version="1.1" id="Layer_1" xmlns="http://www.w3.org/2000/svg" xmlns:xlink="http://www.w3.org/1999/xlink" x="0px" y="0px"
	 width="28px" height="28px" viewBox="0 0 28 28" style="enable-background:new 0 0 28 28;" xml:space="preserve">
<style type="text/css">
<![CDATA[
	.st0{fill-rule:evenodd;clip-rule:evenodd;fill:#333333;}
]]>
</style>
<path class="st0" d="M25.143,19.043c1.285,0,2.33,1.044,2.33,2.328c0,1.288-1.045,2.33-2.33,2.33c-1.287,0-2.328-1.042-2.328-2.33
	C22.814,20.087,23.855,19.043,25.143,19.043L25.143,19.043z M0.527,25.08c0,0,11.361,5.114,16.475,0
	c3.686-3.683,6.07-11.672,7.115-15.851c0.348,0.853,0.906,1.527,1.75,1.827c1.65-1.497,2.492-5.297-0.553-7.18l0.75-3.194L24.557,0
	l-2.168,2.51c-2.365-0.421-5.738-0.3-6.6,1.886c0.693,0.818,1.924,1.465,3.238,1.588C14.516,13.06,8.582,19.525,0.527,25.08
	L0.527,25.08z M14.814,17.067c1.379,0,2.496,1.118,2.496,2.496c0,1.38-1.117,2.497-2.496,2.497s-2.498-1.117-2.498-2.497
	C12.316,18.186,13.436,17.067,14.814,17.067L14.814,17.067z M10.348,21.245c1.113,0,2.016,0.901,2.016,2.017
	s-0.902,2.017-2.016,2.017S8.33,24.377,8.33,23.262S9.234,21.245,10.348,21.245L10.348,21.245z M20.625,7.75
	c1.113,0,2.016,0.903,2.016,2.018c0,1.113-0.902,2.016-2.016,2.016c-1.115,0-2.018-0.903-2.018-2.016
	C18.607,8.653,19.51,7.75,20.625,7.75L20.625,7.75z M18.271,12.648c1.113,0,2.018,0.903,2.018,2.016
	c0,1.115-0.904,2.019-2.018,2.019s-2.018-0.903-2.018-2.019C16.254,13.551,17.158,12.648,18.271,12.648L18.271,12.648z
	 M21.674,23.105c-1.352,0-2.447,1.096-2.447,2.445c0,1.352,1.096,2.449,2.447,2.449s2.447-1.098,2.447-2.449
	C24.121,24.201,23.025,23.105,21.674,23.105z"/>
</svg>
