<?xml version="1.0" encoding="utf-8"?>
<!-- Generator: Adobe Illustrator 16.0.3, SVG Export Plug-In . SVG Version: 6.00 Build 0)  -->
<!DOCTYPE svg PUBLIC "-//W3C//DTD SVG 1.1//EN" "http://www.w3.org/Graphics/SVG/1.1/DTD/svg11.dtd">
<svg version="1.1" id="Layer_1" xmlns="http://www.w3.org/2000/svg" xmlns:xlink="http://www.w3.org/1999/xlink" x="0px" y="0px"
	 width="28px" height="28px" viewBox="0 0 28 28" style="enable-background:new 0 0 28 28;" xml:space="preserve">
<style type="text/css">
<![CDATA[
	.st0{fill:#333333;}
]]>
</style>
<path class="st0" d="M13.128,14H9.645v-3.5h3.483V14z M18.356,10.5h-3.484V14h3.484V10.5z M23.582,10.5h-3.483V14h3.483V10.5z
	 M7.902,15.75H4.418v3.5h3.484V15.75z M13.128,15.75H9.645v3.5h3.483V15.75z M18.356,15.75h-3.484v3.5h3.484V15.75z M23.582,15.75
	h-3.483v3.5h3.483V15.75z M7.902,21.001H4.418V24.5h3.484V21.001z M13.128,21.001H9.645V24.5h3.483V21.001z M18.356,21.001h-3.484
	V24.5h3.484V21.001z M27.066,3.5V28H0.934V3.5h3.484V0h5.227v3.5h8.712V0h5.226v3.5H27.066z M20.099,5.25h1.742v-3.5h-1.742V5.25z
	 M6.159,5.25h1.743v-3.5H6.159V5.25z M25.325,8.751H2.676V26.25h22.649V8.751z"/>
</svg>
