<?xml version="1.0" encoding="utf-8"?>
<!-- Generator: Adobe Illustrator 16.0.3, SVG Export Plug-In . SVG Version: 6.00 Build 0)  -->
<!DOCTYPE svg PUBLIC "-//W3C//DTD SVG 1.1//EN" "http://www.w3.org/Graphics/SVG/1.1/DTD/svg11.dtd">
<svg version="1.1" id="Layer_1" xmlns="http://www.w3.org/2000/svg" xmlns:xlink="http://www.w3.org/1999/xlink" x="0px" y="0px"
	 width="28px" height="28px" viewBox="0 0 28 28" style="enable-background:new 0 0 28 28;" xml:space="preserve">
<style type="text/css">
<![CDATA[
	.st0{fill:#333333;}
]]>
</style>
<path class="st0" d="M7.178,12.849H5.569C5.943,6.55,10.348,0,14.027,0c3.678,0,8.084,6.55,8.458,12.849h-1.609
	c-0.371-5.555-4.273-11.242-6.848-11.242C11.452,1.606,7.55,7.294,7.178,12.849z M23.01,14.937H4.991H4.47v1.492
	c0,0.003,0,0.005,0,0.007s0,0.004,0,0.006v0.115h0.003c0.059,4.717,3.544,8.609,8.082,9.299v0.682l-6.399,0.66V28h15.688v-0.803
	l-6.398-0.65v-0.689c4.537-0.691,8.023-4.584,8.08-9.301h0.004v-1.62H23.01z M13.824,4.862C14.337,4.667,14.559,4.015,14,3.458
	c-1.844-1.142-4.743,3.864-5.356,7.64C11.381,4.988,13.824,4.862,13.824,4.862z"/>
</svg>
