<?xml version="1.0" encoding="utf-8"?>
<!-- Generator: Adobe Illustrator 16.0.3, SVG Export Plug-In . SVG Version: 6.00 Build 0)  -->
<!DOCTYPE svg PUBLIC "-//W3C//DTD SVG 1.1//EN" "http://www.w3.org/Graphics/SVG/1.1/DTD/svg11.dtd">
<svg version="1.1" id="Layer_1" xmlns="http://www.w3.org/2000/svg" xmlns:xlink="http://www.w3.org/1999/xlink" x="0px" y="0px"
	 width="28px" height="28px" viewBox="0 0 28 28" style="enable-background:new 0 0 28 28;" xml:space="preserve">
<style type="text/css">
<![CDATA[
	.st0{fill:#333333;}
]]>
</style>
<path class="st0" d="M24.266,0H3.734C1.678,0,0,1.68,0,3.733v20.533C0,26.32,1.678,28,3.734,28h20.531C26.32,28,28,26.32,28,24.267
	V3.733C28,1.68,26.32,0,24.266,0z M18.258,14.574h-3.273v8.76h-3.336v-8.76H9.332v-3.155h2.316c0,0,0-1.291,0-2.691
	c0-2.117,1.367-4.063,4.521-4.063c1.273,0,2.221,0.123,2.221,0.123l-0.076,2.944c0,0-0.963-0.008-2.012-0.008
	c-1.135,0-1.318,0.523-1.318,1.393c0,0.128,0,0.158,0,0.146c0,0.236,0,0.82,0,2.156h3.422L18.258,14.574z"/>
</svg>
