<?xml version="1.0" encoding="utf-8"?>
<!-- Generator: Adobe Illustrator 16.0.3, SVG Export Plug-In . SVG Version: 6.00 Build 0)  -->
<!DOCTYPE svg PUBLIC "-//W3C//DTD SVG 1.1//EN" "http://www.w3.org/Graphics/SVG/1.1/DTD/svg11.dtd">
<svg version="1.1" id="Layer_1" xmlns="http://www.w3.org/2000/svg" xmlns:xlink="http://www.w3.org/1999/xlink" x="0px" y="0px"
	 width="28px" height="28px" viewBox="0 0 28 28" style="enable-background:new 0 0 28 28;" xml:space="preserve">
<style type="text/css">
<![CDATA[
	.st0{fill:#333333;}
]]>
</style>
<g>
	<g>
		<path class="st0" d="M26.337,11.971c-0.001-0.002-0.003-0.004-0.003-0.004c-0.076-0.099-0.149-0.197-0.226-0.294
			c-0.004-0.003-0.005-0.006-0.009-0.009c-0.306-0.388-0.631-0.757-0.97-1.107c-0.011-0.007-0.019-0.016-0.029-0.025
			c-0.079-0.083-0.161-0.164-0.242-0.246c-0.009-0.007-0.017-0.015-0.024-0.023c-0.259-0.249-0.523-0.488-0.797-0.715
			c-0.005-0.002-0.009-0.008-0.015-0.009c-0.079-0.069-0.161-0.132-0.242-0.199c-0.024-0.019-0.049-0.038-0.073-0.056
			c-0.078-0.061-0.158-0.121-0.238-0.18c-0.023-0.02-0.049-0.037-0.07-0.054c-0.253-0.184-0.509-0.359-0.771-0.524
			c-0.036-0.02-0.071-0.045-0.107-0.066c-0.071-0.045-0.144-0.086-0.216-0.129c-0.045-0.026-0.093-0.054-0.137-0.081
			c-0.07-0.039-0.14-0.078-0.211-0.117c-0.05-0.027-0.102-0.053-0.15-0.081c-0.087-0.046-0.173-0.089-0.259-0.134
			c-0.093-0.045-0.185-0.09-0.276-0.133c-0.063-0.028-0.123-0.055-0.185-0.084c-0.063-0.029-0.13-0.056-0.193-0.083
			c-0.062-0.026-0.124-0.051-0.184-0.078c-0.069-0.026-0.136-0.054-0.204-0.079c-0.06-0.023-0.118-0.046-0.177-0.067
			c-0.083-0.031-0.163-0.059-0.247-0.088c-0.047-0.014-0.092-0.031-0.139-0.045c-0.125-0.042-0.25-0.08-0.375-0.117
			c-0.049-0.013-0.098-0.027-0.145-0.04c-0.088-0.023-0.172-0.046-0.258-0.068c-0.056-0.013-0.107-0.026-0.16-0.038
			c-0.085-0.022-0.174-0.04-0.261-0.06c-0.049-0.011-0.099-0.021-0.147-0.03c-0.113-0.022-0.229-0.043-0.342-0.063
			c-0.024-0.004-0.047-0.008-0.068-0.012c-0.135-0.022-0.271-0.041-0.41-0.057c-0.043-0.006-0.085-0.01-0.127-0.016
			c-0.1-0.01-0.196-0.021-0.295-0.028c-0.049-0.005-0.1-0.009-0.148-0.013c-0.068-0.004-0.134-0.011-0.201-0.014
			c-1.549-0.702-2.95-1.179-3.871-1.346c-1.596-0.287-3.148-0.096-4.25,1.11c0.139,0.824,0.453,1.593,0.908,2.239
			C9.781,8.714,9.774,8.72,9.766,8.727C9.762,8.729,9.76,8.729,9.757,8.732l0,0c-1.671,1.118-3.112,2.647-4.231,4.47
			c-0.171-0.89-0.553-1.736-1.145-2.429C3.24,9.436,1.617,9.01,0.165,9.496c-0.184,0.755-0.212,1.55-0.089,2.32c0,0,0,0,0,0
			c0.018,0.105,0.037,0.211,0.061,0.315c0.002,0.006,0.002,0.011,0.003,0.017c0.022,0.101,0.046,0.199,0.075,0.295
			c0.002,0.011,0.006,0.022,0.009,0.033c0.026,0.093,0.055,0.186,0.085,0.275c0.006,0.018,0.014,0.035,0.019,0.052
			c0.03,0.083,0.062,0.168,0.095,0.25c0.01,0.021,0.021,0.047,0.031,0.07c0.032,0.076,0.063,0.151,0.1,0.225
			c0.016,0.029,0.03,0.058,0.045,0.086c0.033,0.067,0.066,0.134,0.103,0.2c0.022,0.036,0.045,0.073,0.067,0.109
			c0.033,0.057,0.065,0.112,0.102,0.168c0.029,0.045,0.063,0.092,0.095,0.137c0.03,0.044,0.059,0.087,0.09,0.128
			c0.065,0.089,0.132,0.173,0.204,0.256c0.073,0.088,0.15,0.169,0.23,0.25c0.012,0.013,0.025,0.025,0.037,0.038
			c-0.091,0.09-0.182,0.186-0.268,0.287c-1.143,1.337-1.506,3.24-1.093,4.938c1.452,0.486,3.075,0.06,4.216-1.276
			c0.561-0.657,0.933-1.451,1.117-2.289c0.814,1.334,1.807,2.507,2.938,3.472c-0.549,0.231-1.006,0.692-1.287,1.283
			c0.411,0.865,1.2,1.45,2.104,1.45c0.734,0,1.391-0.383,1.832-0.989c1.533,0.748,3.215,1.161,4.981,1.161
			c0.048,0,0.095-0.002,0.143-0.004c0.049,0.002,0.097,0.004,0.142,0.004c5.014,0,9.377-3.245,11.65-8.036
			C27.53,13.733,26.971,12.812,26.337,11.971z M19.454,11.996c0.304-1.181,0.722-2.269,1.237-3.258
			c-0.186,0.5-0.348,1.015-0.484,1.552c-0.913,3.576-0.553,7.252,0.754,10.259C20.574,20.765,18.352,16.26,19.454,11.996z
			 M23.108,15.431c-0.664,0-1.201-0.538-1.201-1.202c0-0.662,0.537-1.2,1.201-1.2c0.661,0,1.2,0.538,1.2,1.2
			C24.309,14.893,23.77,15.431,23.108,15.431z"/>
	</g>
</g>
</svg>
