<?xml version="1.0" encoding="utf-8"?>
<!-- Generator: Adobe Illustrator 16.0.3, SVG Export Plug-In . SVG Version: 6.00 Build 0)  -->
<!DOCTYPE svg PUBLIC "-//W3C//DTD SVG 1.1//EN" "http://www.w3.org/Graphics/SVG/1.1/DTD/svg11.dtd">
<svg version="1.1" id="Layer_1" xmlns="http://www.w3.org/2000/svg" xmlns:xlink="http://www.w3.org/1999/xlink" x="0px" y="0px"
	 width="28px" height="28px" viewBox="0 0 28 28" style="enable-background:new 0 0 28 28;" xml:space="preserve">
<style type="text/css">
<![CDATA[
	.st0{fill:#333333;}
]]>
</style>
<path class="st0" d="M3.581,5.83c0,0.267,0,4.577,0,4.577c0,0.515-0.172,0.715-0.322,0.833l-0.008,0.006
	c-0.12,0.117-0.26,0.189-0.383,0.252c-0.038,0.02-0.074,0.038-0.108,0.057l-0.008,0.004l-0.007,0.006
	c-0.315,0.271-0.461,0.671-0.458,1.258c0.005,0.947,0.2,5.061,0.294,7.038c0.029,0.612,0.051,1.055,0.052,1.11
	c0.003,0.104,0.007,0.22,0.011,0.342c0.032,0.886,0.081,2.226-0.357,2.681c-0.1,0.104-0.219,0.153-0.363,0.153H1.657
	c-0.145,0-0.264-0.05-0.362-0.153c-0.438-0.455-0.39-1.795-0.358-2.681c0.005-0.122,0.01-0.237,0.012-0.342
	C0.95,20.916,0.971,20.474,1,19.861c0.094-1.978,0.288-6.091,0.294-7.038c0.003-0.586-0.143-0.986-0.458-1.258l-0.007-0.006
	L0.82,11.555c-0.034-0.019-0.069-0.037-0.107-0.057c-0.123-0.063-0.263-0.136-0.384-0.252l-0.007-0.006
	C0.172,11.122,0,10.921,0,10.406c0,0,0-4.244,0-4.614s0.211-1.024,0.304-1.024S0.61,5.376,0.61,5.821c0,0.444,0,4.059,0,4.059
	c0,0.065,0.004,0.124,0.011,0.176c0.05,0.369,0.258,0.453,0.389,0.469l0.011,0.001l0.012-0.001c0.15-0.018,0.403-0.125,0.403-0.646
	c0,0,0-3.798,0-4.059c0-0.262,0.241-1.053,0.333-1.053c0.094,0,0.377,0.701,0.377,1.053c0,0.351,0,4.059,0,4.059
	c0,0.52,0.253,0.627,0.403,0.646l0.012,0.001l0.011-0.001c0.131-0.016,0.339-0.1,0.389-0.469c0.007-0.053,0.011-0.111,0.011-0.176
	c0,0,0.002-3.878,0.002-4.134s0,0,0,0c0.007-0.11,0.195-0.978,0.288-0.978C3.354,4.769,3.581,5.563,3.581,5.83z M27.98,21.819
	c0-0.283,0-9.567,0-10.118c0-2.575,0-7.334,0-7.334s-0.035-0.551-0.415-0.542c-0.38,0.007-1.991,2.307-1.991,6.965
	c0.03,1.713,0.614,2.356,1.022,2.784c0.241,0.643-0.188,1.125-0.188,1.875c0,0.749,0,6.691,0,6.691s-0.188,2.035,0.916,2.035
	C28.176,24.176,27.98,23.426,27.98,21.819z M14.29,8.212c-3.091,0-5.605,2.515-5.605,5.606s2.515,5.606,5.605,5.606
	c3.092,0,5.606-2.515,5.606-5.606S17.382,8.212,14.29,8.212z M24.191,13.818c0,5.459-4.441,9.902-9.901,9.902
	c-5.459,0-9.9-4.442-9.9-9.902s4.441-9.901,9.9-9.901C19.75,3.917,24.191,8.358,24.191,13.818z M20.926,13.818
	c0-3.659-2.977-6.635-6.636-6.635c-3.658,0-6.635,2.976-6.635,6.635c0,3.659,2.977,6.635,6.635,6.635
	C17.949,20.453,20.926,17.477,20.926,13.818z"/>
</svg>
