<?xml version="1.0" encoding="utf-8"?>
<!-- Generator: Adobe Illustrator 16.0.3, SVG Export Plug-In . SVG Version: 6.00 Build 0)  -->
<!DOCTYPE svg PUBLIC "-//W3C//DTD SVG 1.1//EN" "http://www.w3.org/Graphics/SVG/1.1/DTD/svg11.dtd">
<svg version="1.1" id="Layer_1" xmlns="http://www.w3.org/2000/svg" xmlns:xlink="http://www.w3.org/1999/xlink" x="0px" y="0px"
	 width="28px" height="28px" viewBox="0 0 28 28" style="enable-background:new 0 0 28 28;" xml:space="preserve">
<style type="text/css">
<![CDATA[
	.st0{fill:#333333;}
]]>
</style>
<path class="st0" d="M11.699,12.939c-0.291,0.123-0.578,0.186-0.873,0.186c-0.498,0-0.928-0.145-1.291-0.432
	c-0.365-0.287-0.668-0.643-0.906-1.061c-0.242-0.42-0.418-0.871-0.535-1.355C7.977,9.795,7.918,9.359,7.918,8.971
	c0-0.311,0.035-0.615,0.105-0.91C8.094,7.764,8.23,7.494,8.43,7.244C8.615,7.01,8.855,6.823,9.152,6.684
	c0.293-0.14,0.596-0.211,0.906-0.211c0.48,0,0.902,0.145,1.268,0.433s0.668,0.649,0.918,1.085c0.248,0.435,0.432,0.904,0.557,1.4
	c0.127,0.498,0.188,0.957,0.188,1.377c0,0.219-0.031,0.49-0.094,0.816c-0.061,0.328-0.223,0.624-0.486,0.887
	C12.223,12.658,11.984,12.813,11.699,12.939z M13.662,18.451c-0.201-0.232-0.465-0.473-0.789-0.721
	c-0.326-0.248-0.705-0.527-1.141-0.838c-0.094-0.016-0.174-0.023-0.246-0.023c-0.068,0-0.166,0-0.287,0
	c-0.047,0-0.156,0.004-0.328,0.012c-0.17,0.008-0.371,0.023-0.604,0.047s-0.48,0.063-0.744,0.117
	c-0.266,0.053-0.521,0.119-0.77,0.197c-0.121,0.047-0.297,0.119-0.521,0.219c-0.225,0.104-0.443,0.246-0.662,0.432
	C7.352,18.08,7.164,18.311,7,18.592c-0.164,0.277-0.244,0.627-0.244,1.045c0,0.839,0.369,1.521,1.105,2.047
	c0.736,0.528,1.732,0.792,2.988,0.792c1.115,0,1.963-0.237,2.547-0.71c0.578-0.473,0.873-1.073,0.873-1.803
	c0-0.293-0.051-0.563-0.152-0.803S13.863,18.684,13.662,18.451z M28,3.501v20.998C28,26.434,26.432,28,24.5,28h-21
	C1.561,28,0,26.434,0,24.499V3.501C0,1.567,1.561,0,3.5,0h21C26.432,0,28,1.567,28,3.501z M15.828,19.049
	c0-0.402-0.055-0.76-0.164-1.07s-0.254-0.59-0.432-0.838s-0.387-0.482-0.629-0.699c-0.238-0.217-0.482-0.434-0.73-0.652l-0.84-0.652
	c-0.125-0.107-0.254-0.236-0.393-0.385c-0.143-0.147-0.211-0.354-0.211-0.615c0-0.263,0.068-0.482,0.211-0.654
	c0.139-0.169,0.287-0.332,0.441-0.486c0.248-0.188,0.488-0.387,0.721-0.596c0.23-0.208,0.443-0.441,0.625-0.699
	c0.189-0.256,0.338-0.547,0.445-0.873s0.162-0.705,0.162-1.141c0-0.434-0.063-0.822-0.186-1.164
	c-0.125-0.342-0.273-0.641-0.441-0.896c-0.172-0.256-0.352-0.475-0.535-0.653c-0.186-0.178-0.35-0.321-0.488-0.431h1.439l1.49-0.813
	h-4.791c-0.639,0-1.322,0.078-2.061,0.232C8.729,6.116,8.027,6.466,7.357,7.01C6.863,7.443,6.492,7.936,6.244,8.487
	c-0.25,0.55-0.371,1.095-0.371,1.638c0,0.449,0.084,0.896,0.254,1.338c0.17,0.442,0.42,0.832,0.742,1.173
	c0.328,0.34,0.732,0.615,1.213,0.827c0.479,0.208,1.031,0.312,1.652,0.312c0.123,0,0.246-0.002,0.371-0.01
	c0.123-0.008,0.246-0.02,0.369-0.037c-0.061,0.143-0.113,0.277-0.162,0.408c-0.045,0.133-0.07,0.299-0.07,0.5
	c0,0.358,0.076,0.656,0.223,0.895c0.146,0.242,0.307,0.471,0.475,0.688c-0.26,0.016-0.574,0.039-0.93,0.068
	c-0.355,0.033-0.736,0.086-1.137,0.164c-0.404,0.078-0.811,0.182-1.221,0.314c-0.41,0.131-0.795,0.307-1.152,0.523
	c-0.682,0.402-1.152,0.871-1.408,1.406c-0.254,0.535-0.383,1.012-0.383,1.431c0,0.436,0.1,0.849,0.303,1.244
	c0.199,0.396,0.512,0.747,0.928,1.059c0.42,0.31,0.945,0.559,1.572,0.744c0.627,0.187,1.361,0.279,2.197,0.279
	c0.992,0,1.873-0.128,2.639-0.384c0.768-0.258,1.408-0.591,1.922-1.002c0.51-0.411,0.896-0.882,1.16-1.408
	C15.695,20.129,15.828,19.592,15.828,19.049z M23.375,8.639h-2.91V5.729h-1.24v2.909h-2.91v1.227h2.91v2.932h1.24V9.865h2.91V8.639z
	"/>
</svg>
