<?xml version="1.0" encoding="utf-8"?>
<!-- Generator: Adobe Illustrator 16.0.3, SVG Export Plug-In . SVG Version: 6.00 Build 0)  -->
<!DOCTYPE svg PUBLIC "-//W3C//DTD SVG 1.1//EN" "http://www.w3.org/Graphics/SVG/1.1/DTD/svg11.dtd">
<svg version="1.1" id="Layer_1" xmlns="http://www.w3.org/2000/svg" xmlns:xlink="http://www.w3.org/1999/xlink" x="0px" y="0px"
	 width="28px" height="28px" viewBox="0 0 28 28" style="enable-background:new 0 0 28 28;" xml:space="preserve">
<style type="text/css">
<![CDATA[
	.st0{fill-rule:evenodd;clip-rule:evenodd;fill:#333333;}
]]>
</style>
<path class="st0" d="M24.77,11.845h-2.438c0.178,0.69,0.283,1.409,0.283,2.155c0,4.758-3.857,8.615-8.615,8.615
	S5.383,18.758,5.383,14c0-0.746,0.105-1.465,0.283-2.155H3.229v11.848c0,0.593,0.482,1.076,1.078,1.076h19.385
	c0.596,0,1.078-0.483,1.078-1.076V11.845z M24.77,4.307c0-0.595-0.482-1.077-1.078-1.077h-3.23c-0.596,0-1.076,0.482-1.076,1.077
	v3.231c0,0.595,0.48,1.078,1.076,1.078h3.23c0.596,0,1.078-0.483,1.078-1.078V4.307z M14,8.615c-2.975,0-5.385,2.41-5.385,5.385
	c0,2.973,2.41,5.385,5.385,5.385c2.973,0,5.385-2.412,5.385-5.385C19.385,11.025,16.973,8.615,14,8.615 M24.77,28H3.229
	C1.445,28,0,26.553,0,24.769V3.23C0,1.447,1.445,0,3.229,0H24.77C26.555,0,28,1.447,28,3.23v21.539C28,26.553,26.555,28,24.77,28"/>
</svg>
