<?xml version="1.0" encoding="utf-8"?>
<!-- Generator: Adobe Illustrator 16.0.3, SVG Export Plug-In . SVG Version: 6.00 Build 0)  -->
<!DOCTYPE svg PUBLIC "-//W3C//DTD SVG 1.1//EN" "http://www.w3.org/Graphics/SVG/1.1/DTD/svg11.dtd">
<svg version="1.1" id="Layer_1" xmlns="http://www.w3.org/2000/svg" xmlns:xlink="http://www.w3.org/1999/xlink" x="0px" y="0px"
	 width="28px" height="28px" viewBox="0 0 28 28" style="enable-background:new 0 0 28 28;" xml:space="preserve">
<style type="text/css">
<![CDATA[
	.st0{fill-rule:evenodd;clip-rule:evenodd;fill:#333333;}
]]>
</style>
<path class="st0" d="M10.959,10.963c0.682-0.683,1.717-0.899,2.883-0.706l0.111-1.817l0.059-0.932l0.904,0.228
	c2.018,0.507,3.805,1.42,5.438,2.574l-0.043-2.401l0.781-0.502l0.131,3.55c0.133,0.103,0.264,0.208,0.396,0.314L21.59,9.742
	l0.781-0.503l0.102,2.759c0.111,0.1,0.223,0.199,0.332,0.3l-0.014-0.851l0.779-0.503l0.08,2.149
	c1.258,1.223,2.439,2.538,3.598,3.833l-0.354,0.232c-0.941-1.053-2.031-2.135-3.211-3.146l0.027,0.737l-2.275,3.483l2.271,2.68
	c1.273-0.477,2.574-0.381,3.904,0.317c0.129,0.327,0.26,0.656,0.389,0.982l-5.637,5.638c-0.328-0.129-0.654-0.26-0.982-0.389
	c-0.701-1.333-0.797-2.637-0.314-3.914l-2.684-2.197l-3.668,2.396l-0.953-0.035c1.039,1.224,2.16,2.358,3.25,3.33l-0.234,0.354
	c-1.338-1.195-2.695-2.416-3.951-3.719l-1.918-0.071l0.504-0.78l0.629,0.011c-0.1-0.111-0.199-0.225-0.299-0.337l-2.541-0.094
	l0.504-0.779l1.324,0.023c-0.107-0.133-0.213-0.266-0.316-0.4l-3.344-0.122l0.502-0.78l2.207,0.039
	c-1.115-1.601-1.998-3.351-2.492-5.321L7.359,14.16l0.932-0.059l1.986-0.122C10.043,12.76,10.252,11.671,10.959,10.963
	L10.959,10.963z M17.328,20.484l-0.516-0.422l-3.803,2.484l-0.197-0.007c0.082,0.104,0.164,0.211,0.246,0.315l1.246,0.022
	L17.328,20.484L17.328,20.484z M14.951,19.814l-0.414,0.028c-0.189-0.124-0.379-0.259-0.566-0.401l-2.297,1.5
	c0.162,0.244,0.328,0.486,0.498,0.729l0.428,0.007L14.951,19.814L14.951,19.814z M13.012,18.62c-0.053-0.051-0.107-0.104-0.16-0.155
	c-0.928-0.93-1.633-1.955-2.084-2.963l-1.416,0.089c0.252,1.465,0.904,3.001,1.797,4.505L13.012,18.62L13.012,18.62z M22.822,13.302
	c-0.104-0.084-0.211-0.167-0.316-0.25l-2.377,3.64l0.439,0.519l2.273-2.87L22.822,13.302L22.822,13.302z M21.639,12.404
	c-0.271-0.194-0.545-0.381-0.82-0.563l-1.387,2.125c0.145,0.191,0.281,0.382,0.406,0.574l0.025,0.339l1.777-2.244L21.639,12.404
	L21.639,12.404z M19.963,11.307c-1.51-0.896-3.051-1.553-4.523-1.805l-0.074,1.213c1.049,0.447,2.125,1.173,3.094,2.142
	c0.051,0.051,0.102,0.104,0.152,0.155L19.963,11.307L19.963,11.307z M13.082,4.235l-2.221-2.258l-0.549,0.146l2.096,3.222
	L13.082,4.235L13.082,4.235z M20.08,6.484c-2.094-4.203-5.623-6.017-10.049-6.336C9.971,0.477,9.91,0.804,9.85,1.131
	c1.59,0.474,2.951,1.473,4.158,2.583C13.6,4.49,13.203,5.213,12.795,5.989c1.537,0.887,3.602,1.537,5.211,1.551
	C18.697,7.188,19.389,6.836,20.08,6.484L20.08,6.484z M4.086,13.23L1.83,11.01l0.145-0.546l3.221,2.093L4.086,13.23L4.086,13.23z
	 M6.336,20.229c0.352-0.69,0.703-1.383,1.055-2.075c-0.014-1.609-0.664-3.673-1.551-5.21c-0.777,0.408-1.498,0.805-2.275,1.213
	c-1.109-1.208-2.107-2.568-2.582-4.158C0.654,10.059,0.328,10.121,0,10.18C0.318,14.606,2.133,18.135,6.336,20.229z"/>
</svg>
