<?xml version="1.0" encoding="utf-8"?>
<!-- Generator: Adobe Illustrator 16.0.3, SVG Export Plug-In . SVG Version: 6.00 Build 0)  -->
<!DOCTYPE svg PUBLIC "-//W3C//DTD SVG 1.1//EN" "http://www.w3.org/Graphics/SVG/1.1/DTD/svg11.dtd">
<svg version="1.1" id="Layer_1" xmlns="http://www.w3.org/2000/svg" xmlns:xlink="http://www.w3.org/1999/xlink" x="0px" y="0px"
	 width="28px" height="28px" viewBox="0 0 28 28" style="enable-background:new 0 0 28 28;" xml:space="preserve">
<style type="text/css">
<![CDATA[
	.st0{fill-rule:evenodd;clip-rule:evenodd;fill:#333333;}
]]>
</style>
<path class="st0" d="M20.133,25.01l-0.445-1.854c1.361-0.602,0.365-3.709,2.334-5.832h-2.348c-1.689,0.763-1.906,2.745-4.234,2.689
	c-1.852-0.045-4.032-0.83-7.693-2.689H4.545c2.366,1.971,6.153,3.714,8.519,5.712l1.425,1.974h-1.569V28h9.306v-2.99H20.133
	L20.133,25.01z M12.423,0h2.991v3.215c4.934,0.715,8.795,4.755,9.23,9.776H8.909c-0.118-2.677,0.843-5.207,2.4-7.654
	C7.83,6.999,5.66,9.495,5.064,12.991H3.043c0.441-5.071,4.373-9.141,9.38-9.796V0L12.423,0z M1.328,14.31h25.344v2.244H1.328V14.31z
	"/>
</svg>
