<?xml version="1.0" encoding="utf-8"?>
<!-- Generator: Adobe Illustrator 16.0.3, SVG Export Plug-In . SVG Version: 6.00 Build 0)  -->
<!DOCTYPE svg PUBLIC "-//W3C//DTD SVG 1.1//EN" "http://www.w3.org/Graphics/SVG/1.1/DTD/svg11.dtd">
<svg version="1.1" id="Layer_1" xmlns="http://www.w3.org/2000/svg" xmlns:xlink="http://www.w3.org/1999/xlink" x="0px" y="0px"
	 width="28px" height="28px" viewBox="0 0 28 28" style="enable-background:new 0 0 28 28;" xml:space="preserve">
<style type="text/css">
<![CDATA[
	.st0{fill:#333333;}
]]>
</style>
<path class="st0" d="M19.735,15.596c-2.304,2.12-6.055,4.731-9.791,5.623c-2.618,0.627-5.228,0.408-7.323-1.414
	C-1.921,15.85-0.419,7.731,6.036,6.188c0.142-0.034,0.287-0.064,0.434-0.092c2.979-0.563,5.989-0.102,9.026-0.823
	c2.174-0.52,4.178-1.753,6.316-2.265c0.116-0.027,0.229-0.053,0.332-0.073c-0.007,0.002,0.041-0.008,0.118-0.021
	c2.91-0.473,4.866,2.605,3.577,4.944C24.212,10.717,22.219,13.302,19.735,15.596z M26.71,8.658
	c-1.741,3.062-3.795,5.664-6.277,7.956c-1.172,1.077-5.369,4.686-10.194,5.84c-2.982,0.712-5.512,0.31-7.553-1.174
	c0.419,0.783,0.982,1.503,1.694,2.122c2.096,1.823,4.706,2.042,7.321,1.417c3.737-0.894,7.488-3.504,9.793-5.625
	c2.481-2.292,4.476-4.878,6.102-7.738c0.72-1.306,0.427-2.842-0.479-3.861C27.03,7.959,26.897,8.316,26.71,8.658z M9.191,17.099
	l0.79-3.76l7.928-3.692c0.238-0.119,0.336-0.411,0.218-0.65c-0.102-0.2-0.331-0.309-0.549-0.257
	c-0.034,0.01-0.068,0.022-0.112,0.043l-8.032,3.181l-3.571-0.965c-0.114-0.05-0.232-0.064-0.341-0.038
	c-0.129,0.032-0.247,0.12-0.328,0.249c-0.141,0.228-0.071,0.527,0.141,0.661l2.902,1.494l-0.068,3.672
	c-0.024,0.265,0.174,0.502,0.438,0.526c0.055,0.005,0.108,0.001,0.159-0.012C8.981,17.5,9.141,17.331,9.191,17.099z"/>
</svg>
