<?xml version="1.0" encoding="utf-8"?>
<!-- Generator: Adobe Illustrator 16.0.3, SVG Export Plug-In . SVG Version: 6.00 Build 0)  -->
<!DOCTYPE svg PUBLIC "-//W3C//DTD SVG 1.1//EN" "http://www.w3.org/Graphics/SVG/1.1/DTD/svg11.dtd">
<svg version="1.1" id="Layer_1" xmlns="http://www.w3.org/2000/svg" xmlns:xlink="http://www.w3.org/1999/xlink" x="0px" y="0px"
	 width="28px" height="28px" viewBox="0 0 28 28" style="enable-background:new 0 0 28 28;" xml:space="preserve">
<style type="text/css">
<![CDATA[
	.st0{fill:#333333;}
]]>
</style>
<path class="st0" d="M24.328,7.757l-4.822-4.869l0.061-1.82c0-0.338-0.164-0.661-0.439-0.863c-0.273-0.201-0.642-0.258-0.954-0.156
	l-9.23,2.933C8.496,3.125,8.205,3.534,8.205,4.001v1.821L3.978,7.953C3.715,8.086,3.546,8.35,3.546,8.641L3.447,24.093
	c0,0.084,0.011,0.165,0.035,0.242l0.172,0.284c0.028,0.032,0.058,0.063,0.09,0.09l9.669,3.252L13.656,28l0.291-0.055
	c0.1-0.013,0.195-0.044,0.284-0.094l9.644-3.166c0.315-0.105,0.528-0.399,0.53-0.729l0.147-15.644
	C24.556,8.105,24.477,7.91,24.328,7.757z M5.309,23.529v-2.108l7.724,2.554v2.138L5.309,23.529z M8.05,7.629l0.664-0.335L8.87,7.45
	L8.05,7.629z M14.964,14.605v-2.696l8.194-2.554l-0.048,14.03l-8.146,2.702v-2.03l7.725-2.231v-9.45L14.964,14.605z M14.071,10.457
	L10.305,6.69l8.124-2.682l3.891,3.928L14.071,10.457z M5.309,12.355V9.64l7.724,2.087v2.828L5.309,12.355z M18.156,2.344
	L9.719,5.219l0-0.938l8.437-2.691V2.344z"/>
</svg>
