<?xml version="1.0" encoding="utf-8"?>
<!-- Generator: Adobe Illustrator 16.0.3, SVG Export Plug-In . SVG Version: 6.00 Build 0)  -->
<!DOCTYPE svg PUBLIC "-//W3C//DTD SVG 1.1//EN" "http://www.w3.org/Graphics/SVG/1.1/DTD/svg11.dtd">
<svg version="1.1" id="Layer_1" xmlns="http://www.w3.org/2000/svg" xmlns:xlink="http://www.w3.org/1999/xlink" x="0px" y="0px"
	 width="28px" height="28px" viewBox="0 0 28 28" style="enable-background:new 0 0 28 28;" xml:space="preserve">
<style type="text/css">
<![CDATA[
	.st0{fill-rule:evenodd;clip-rule:evenodd;fill:#333333;}
]]>
</style>
<path class="st0" d="M10.112,14.463l3.64,2.102c2.667-1.439,6.21-3.905,7.511-7.043c-3.897,0.516-7.752-2.942-10.672,0
	C10.31,11.147,10.169,12.831,10.112,14.463L10.112,14.463z M3.967,24.293c0.44,0,0.796,0.355,0.796,0.797
	c0,0.438-0.355,0.794-0.796,0.794c-0.439,0-0.796-0.355-0.796-0.794C3.171,24.648,3.527,24.293,3.967,24.293L3.967,24.293z
	 M3.858,26.408c0.439,0,0.796,0.355,0.796,0.795C4.654,27.645,4.298,28,3.858,28s-0.797-0.355-0.797-0.797
	C3.062,26.764,3.419,26.408,3.858,26.408L3.858,26.408z M6.886,25.9c0.439,0,0.797,0.355,0.797,0.797
	c0,0.439-0.357,0.796-0.797,0.796c-0.438,0-0.796-0.356-0.796-0.796C6.09,26.256,6.448,25.9,6.886,25.9L6.886,25.9z M9.086,24.369
	c0.44,0,0.797,0.357,0.797,0.797s-0.356,0.797-0.797,0.797c-0.439,0-0.796-0.357-0.796-0.797S8.646,24.369,9.086,24.369
	L9.086,24.369z M6.657,23.238c0.438,0,0.795,0.356,0.795,0.797c0,0.439-0.356,0.797-0.795,0.797c-0.44,0-0.797-0.357-0.797-0.797
	C5.86,23.595,6.217,23.238,6.657,23.238L6.657,23.238z M4.874,21.668c0.441,0,0.796,0.355,0.796,0.795s-0.354,0.796-0.796,0.796
	c-0.439,0-0.797-0.356-0.797-0.796S4.435,21.668,4.874,21.668L4.874,21.668z M13.465,21.434c-2.438-1.408-4.877-2.816-7.315-4.224
	c-0.51,0.884-1.02,1.767-1.53,2.649c1.987,2.191,4.38,3.679,7.315,4.224C12.445,23.2,12.956,22.318,13.465,21.434L13.465,21.434z
	 M13.286,20.397l-6.095-3.519l-0.59-0.342l-0.005-0.681c-0.012-2.311,0.14-5.8,1.019-8.893c0.948-3.338,2.736-6.212,6.042-6.876
	L14.097,0l0.389,0.222l4.387,2.533l0.075,0.044l0.006,0.003l0.075,0.044l0.006,0.002l0.076,0.043l0.005,0.004L19.19,2.94
	l0.006,0.004l0.076,0.042l0.005,0.003l0.076,0.043l0.005,0.002l0.076,0.045l0.005,0.002l0.075,0.043l0.006,0.004l0.075,0.042
	l0.006,0.004l0.075,0.043l4.388,2.533l0.387,0.224l0.145,0.427c1.077,3.193-0.519,6.178-2.935,8.668
	c-2.239,2.307-5.186,4.185-7.192,5.329l-0.592,0.339L13.286,20.397L13.286,20.397z M8.973,15.164c0.023-2.13,0.205-5.02,0.925-7.548
	c0.682-2.403,1.846-4.475,3.815-5.096l3.972,2.294l0.075,0.042l0.005,0.005l0.074,0.042l0.007,0.004l0.076,0.044l0.005,0.002
	l0.074,0.043l0.006,0.004l0.077,0.043l0.005,0.003l0.074,0.042l0.007,0.004l0.076,0.044l0.005,0.002l0.076,0.045l0.007,0.002
	l0.074,0.044l0.005,0.004l0.076,0.042l3.972,2.293c0.448,2.016-0.766,4.06-2.505,5.852c-1.831,1.886-4.241,3.489-6.077,4.574
	L8.973,15.164z"/>
</svg>
