<?xml version="1.0" encoding="utf-8"?>
<!-- Generator: Adobe Illustrator 16.0.3, SVG Export Plug-In . SVG Version: 6.00 Build 0)  -->
<!DOCTYPE svg PUBLIC "-//W3C//DTD SVG 1.1//EN" "http://www.w3.org/Graphics/SVG/1.1/DTD/svg11.dtd">
<svg version="1.1" id="Layer_1" xmlns="http://www.w3.org/2000/svg" xmlns:xlink="http://www.w3.org/1999/xlink" x="0px" y="0px"
	 width="28px" height="28px" viewBox="0 0 28 28" style="enable-background:new 0 0 28 28;" xml:space="preserve">
<style type="text/css">
<![CDATA[
	.st0{fill:#333333;}
]]>
</style>
<path class="st0" d="M0,14C0.002,6.268,6.27,0.001,14,0l0,0c7.732,0.001,14,6.268,14,14l0,0c0,7.732-6.268,13.999-14,14l0,0
	C6.27,27.999,0.002,21.732,0,14L0,14z M2.635,14C2.646,20.277,7.725,25.352,14,25.363l0,0C20.277,25.352,25.354,20.277,25.365,14
	l0,0C25.354,7.723,20.277,2.647,14,2.636l0,0C7.725,2.647,2.646,7.723,2.635,14L2.635,14z M18.193,14h-3.727V5.6
	c0-0.515-0.418-0.934-0.932-0.934c-0.518,0-0.936,0.419-0.936,0.934v9.334c0,0.515,0.418,0.931,0.936,0.931h4.658
	c0.516,0,0.932-0.416,0.932-0.931C19.125,14.417,18.709,14,18.193,14z"/>
</svg>
