<?xml version="1.0" encoding="utf-8"?>
<!-- Generator: Adobe Illustrator 16.0.3, SVG Export Plug-In . SVG Version: 6.00 Build 0)  -->
<!DOCTYPE svg PUBLIC "-//W3C//DTD SVG 1.1//EN" "http://www.w3.org/Graphics/SVG/1.1/DTD/svg11.dtd">
<svg version="1.1" id="Layer_1" xmlns="http://www.w3.org/2000/svg" xmlns:xlink="http://www.w3.org/1999/xlink" x="0px" y="0px"
	 width="28px" height="28px" viewBox="0 0 28 28" style="enable-background:new 0 0 28 28;" xml:space="preserve">
<style type="text/css">
<![CDATA[
	.st0{fill:#333333;}
]]>
</style>
<path class="st0" d="M24.266,0H3.734C1.679,0,0,1.68,0,3.733v20.533C0,26.32,1.679,28,3.734,28h20.532C26.322,28,28,26.32,28,24.267
	V3.733C28,1.68,26.322,0,24.266,0z M21.422,10.254c0.008,0.16,0.012,0.324,0.012,0.486c0,4.982-3.852,10.727-10.895,10.727
	c-2.165,0-4.178-0.624-5.873-1.694c0.301,0.036,0.607,0.054,0.914,0.054c1.795,0,3.443-0.604,4.756-1.615
	c-1.672-0.029-3.09-1.119-3.578-2.617c0.233,0.045,0.477,0.068,0.723,0.068c0.35,0,0.686-0.047,1.01-0.133
	c-1.752-0.346-3.074-1.871-3.074-3.697c0-0.017,0-0.03,0.002-0.045c0.516,0.279,1.105,0.451,1.734,0.471
	c-1.029-0.676-1.703-1.83-1.703-3.139c0-0.691,0.188-1.339,0.516-1.896c1.891,2.281,4.711,3.782,7.895,3.94
	c-0.063-0.278-0.098-0.565-0.098-0.861c0-2.081,1.713-3.77,3.831-3.77c1.102,0,2.096,0.456,2.793,1.192
	c0.875-0.17,1.693-0.484,2.432-0.916c-0.285,0.882-0.893,1.618-1.682,2.085c0.773-0.092,1.512-0.293,2.197-0.595
	C22.818,9.059,22.17,9.723,21.422,10.254z"/>
</svg>
