<?xml version="1.0" encoding="utf-8"?>
<!-- Generator: Adobe Illustrator 16.0.3, SVG Export Plug-In . SVG Version: 6.00 Build 0)  -->
<!DOCTYPE svg PUBLIC "-//W3C//DTD SVG 1.1//EN" "http://www.w3.org/Graphics/SVG/1.1/DTD/svg11.dtd">
<svg version="1.1" id="Layer_1" xmlns="http://www.w3.org/2000/svg" xmlns:xlink="http://www.w3.org/1999/xlink" x="0px" y="0px"
	 width="28px" height="28px" viewBox="0 0 28 28" style="enable-background:new 0 0 28 28;" xml:space="preserve">
<style type="text/css">
<![CDATA[
	.st0{fill:#333333;}
]]>
</style>
<path class="st0" d="M28,22.138V24h-2.908v-1.862c-0.078-0.399-0.207-0.783-0.389-1.146c-0.15-0.314-0.354-0.615-0.611-0.914
	c-0.26-0.3-0.6-0.522-1.02-0.668c-0.199-0.069-0.457-0.166-0.777-0.294c-0.318-0.129-0.68-0.271-1.076-0.43
	c-0.398-0.164-0.82-0.336-1.266-0.522c-0.441-0.187-0.879-0.37-1.316-0.558c-0.434-0.187-0.854-0.367-1.264-0.541
	c-0.408-0.18-0.771-0.334-1.09-0.472v-1.715c0-0.076,0.025-0.202,0.076-0.375c0.047-0.17,0.104-0.347,0.164-0.534
	c0.068-0.215,0.145-0.443,0.223-0.687c0.289-0.531,0.516-1.123,0.68-1.783c0.164-0.662,0.248-1.357,0.248-2.089
	c0-0.996-0.107-1.843-0.322-2.53s-0.508-1.245-0.883-1.672c-0.373-0.427-0.807-0.731-1.301-0.923
	c-0.039-0.017-0.082-0.021-0.119-0.033C15.502,4.092,15.98,4,16.496,4c0.561,0,1.086,0.094,1.58,0.286
	c0.492,0.191,0.926,0.496,1.299,0.923c0.377,0.427,0.67,0.984,0.885,1.672s0.322,1.534,0.322,2.53c0,0.731-0.084,1.427-0.248,2.089
	c-0.166,0.66-0.393,1.252-0.682,1.783c-0.078,0.243-0.152,0.472-0.223,0.687c-0.061,0.188-0.115,0.364-0.164,0.534
	c-0.051,0.173-0.074,0.299-0.074,0.375v1.715c0.316,0.138,0.682,0.292,1.09,0.472c0.408,0.174,0.83,0.354,1.264,0.541
	c0.436,0.188,0.875,0.371,1.316,0.558c0.445,0.187,0.867,0.358,1.266,0.522c0.398,0.158,0.758,0.301,1.074,0.43
	c0.32,0.128,0.58,0.225,0.779,0.294c0.418,0.146,0.76,0.368,1.018,0.668c0.26,0.299,0.465,0.6,0.613,0.914
	C27.791,21.354,27.922,21.738,28,22.138z M14.449,14.879c0-0.076,0.025-0.202,0.076-0.375c0.049-0.17,0.105-0.347,0.166-0.534
	c0.066-0.215,0.143-0.443,0.223-0.687c0.287-0.531,0.516-1.123,0.682-1.783c0.164-0.662,0.246-1.357,0.246-2.089
	c0-0.996-0.107-1.843-0.322-2.53c-0.217-0.688-0.508-1.245-0.885-1.672c-0.371-0.427-0.805-0.731-1.301-0.923
	C12.842,4.094,12.316,4,11.758,4c-0.568,0-1.1,0.096-1.592,0.294C9.67,4.488,9.24,4.801,8.871,5.232
	c-0.369,0.43-0.66,0.985-0.877,1.671c-0.213,0.684-0.32,1.52-0.32,2.508c0,0.752,0.086,1.465,0.254,2.134s0.398,1.267,0.689,1.795
	c0.078,0.225,0.15,0.437,0.207,0.63c0.053,0.167,0.1,0.329,0.145,0.491s0.076,0.281,0.098,0.36v1.672
	c-0.311,0.136-0.668,0.292-1.08,0.468c-0.408,0.178-0.842,0.361-1.301,0.557c-0.457,0.196-0.92,0.392-1.383,0.587
	s-0.906,0.379-1.322,0.551c-0.42,0.17-0.799,0.32-1.139,0.454c-0.34,0.133-0.615,0.231-0.822,0.301
	c-0.41,0.146-0.742,0.368-1.004,0.668c-0.258,0.299-0.463,0.6-0.613,0.914C0.223,21.354,0.09,21.738,0,22.138V24h23.26v-1.862
	c-0.08-0.399-0.209-0.783-0.389-1.146c-0.148-0.314-0.352-0.615-0.613-0.914c-0.258-0.3-0.6-0.522-1.018-0.668
	c-0.197-0.069-0.457-0.166-0.777-0.294c-0.318-0.129-0.678-0.271-1.074-0.43c-0.402-0.164-0.822-0.336-1.266-0.522
	c-0.445-0.187-0.885-0.37-1.316-0.558c-0.436-0.187-0.857-0.367-1.264-0.541c-0.408-0.18-0.775-0.334-1.094-0.472V14.879"/>
</svg>
