<?xml version="1.0" encoding="utf-8"?>
<!-- Generator: Adobe Illustrator 16.0.3, SVG Export Plug-In . SVG Version: 6.00 Build 0)  -->
<!DOCTYPE svg PUBLIC "-//W3C//DTD SVG 1.1//EN" "http://www.w3.org/Graphics/SVG/1.1/DTD/svg11.dtd">
<svg version="1.1" id="Layer_1" xmlns="http://www.w3.org/2000/svg" xmlns:xlink="http://www.w3.org/1999/xlink" x="0px" y="0px"
	 width="28px" height="28px" viewBox="0 0 28 28" style="enable-background:new 0 0 28 28;" xml:space="preserve">
<style type="text/css">
<![CDATA[
	.st0{fill:#333333;}
]]>
</style>
<path class="st0" d="M16.091,17.372c-0.239,0.414-0.521,0.979-0.83,1.599c-1.636,3.283-3.914,7.852-8.327,7.391
	c-4.409-0.462-5.466-4.218-5.72-6.091h0.01L0,10.778c0,0,2.931,1.25,3.492,4.235c0.36,1.921,0.813,4.726,0.897,5.257h0.005
	c0.225,1.124,0.887,2.766,2.859,2.97c2.252,0.235,3.964-3.199,5.194-5.67c0.099-0.198,0.194-0.389,0.289-0.574
	c0.224-0.443,0.437-0.853,0.649-1.219l-0.002-0.025c2.135-4.498,5.681-8.446,11.667-11.447c-5.106,1.36-8.761,4.082-11.667,7.506
	c0.58-7.377,4.772-11.244,14.428-9.961C28.756,9.946,26.346,17.788,16.091,17.372z"/>
</svg>
