<?xml version="1.0" encoding="utf-8"?>
<!-- Generator: Adobe Illustrator 16.0.3, SVG Export Plug-In . SVG Version: 6.00 Build 0)  -->
<!DOCTYPE svg PUBLIC "-//W3C//DTD SVG 1.1//EN" "http://www.w3.org/Graphics/SVG/1.1/DTD/svg11.dtd">
<svg version="1.1" id="Layer_1" xmlns="http://www.w3.org/2000/svg" xmlns:xlink="http://www.w3.org/1999/xlink" x="0px" y="0px"
	 width="28px" height="28px" viewBox="0 0 28 28" style="enable-background:new 0 0 28 28;" xml:space="preserve">
<path class="st0" d="M19.567,11.796c1.029,1.742,2.045,2.916,0.959,5.16c-0.984,2.037-1.543,2.574-1.617,2.645v0.005
	c-0.001-0.002-0.002-0.003-0.002-0.004c-0.006,0.007-0.01,0.01-0.01,0.01l0.002-0.023c-1.029-1.742-2.044-2.916-0.959-5.161
	c0.983-2.036,1.542-2.574,1.616-2.644l0.001-0.004c0,0.001,0.001,0.001,0.001,0.002c0.007-0.007,0.011-0.009,0.011-0.009
	L19.567,11.796z M11.17,16.746c1.026,1.745,1.561,3.2,4.051,3.338c2.258,0.125,2.998-0.104,3.097-0.134l0.003,0.002
	c0-0.001-0.001-0.003-0.001-0.003c0.009-0.003,0.014-0.004,0.014-0.004l-0.022-0.011c-1.026-1.744-1.562-3.2-4.051-3.339
	c-2.259-0.125-2.999,0.104-3.097,0.135l-0.004-0.001c0.001,0.001,0.001,0.001,0.002,0.002c-0.009,0.003-0.013,0.005-0.013,0.005
	L11.17,16.746z M8.823,2.727c-0.269,1.76-0.719,3.069,0.959,4.412c1.523,1.217,2.176,1.423,2.263,1.451l0.001,0.003
	c0,0,0.001-0.002,0.002-0.002c0.006,0.002,0.011,0.003,0.011,0.003L12.05,8.576c0.268-1.761,0.719-3.069-0.961-4.413
	C9.566,2.946,8.913,2.738,8.827,2.712L8.825,2.709v0.002C8.817,2.709,8.813,2.708,8.813,2.708L8.823,2.727z M17.261,7.856
	c0,0-0.004,0.003-0.011,0.01c0-0.001-0.001-0.002-0.001-0.003v0.004c-0.074,0.07-0.634,0.608-1.617,2.645
	c-1.085,2.244-0.07,3.418,0.959,5.161l-0.002,0.023c0,0,0.004-0.003,0.011-0.009l0.001,0.002v-0.004
	c0.075-0.07,0.634-0.608,1.617-2.644c1.085-2.245,0.07-3.419-0.959-5.161L17.261,7.856z M8.861,12.83
	c1.026,1.745,1.561,3.201,4.051,3.338c2.258,0.126,2.999-0.104,3.097-0.134l0.004,0.001l-0.002-0.002
	c0.009-0.003,0.013-0.005,0.013-0.005l-0.021-0.01c-1.026-1.745-1.562-3.201-4.051-3.338c-2.259-0.125-2.998,0.103-3.097,0.134
	l-0.004-0.002c0.001,0.001,0.002,0.002,0.002,0.002c-0.008,0.003-0.014,0.004-0.014,0.004L8.861,12.83z M9.667,8.805
	C9.349,8.788,9.063,8.777,8.803,8.772L6.233,4.414C6.173,4.312,6.04,4.277,5.938,4.337C5.835,4.398,5.802,4.531,5.862,4.632
	L8.3,8.77C7.689,8.774,7.271,8.812,7,8.85L4.642,4.852C4.582,4.749,4.45,4.714,4.347,4.775C4.245,4.836,4.212,4.968,4.271,5.07
	l2.892,4.906c0,0.001,0,0.001,0.002,0.001c0.738,1.261,1.48,2.207,3.463,2.316c2.258,0.125,2.998-0.104,3.097-0.135l0.003,0.002
	c0-0.001-0.001-0.001-0.001-0.001c0.009-0.004,0.013-0.005,0.013-0.005l-0.021-0.01C12.691,10.399,12.157,8.943,9.667,8.805z
	 M12.397,0.03c-0.103,0.061-0.137,0.193-0.076,0.295l2.357,3.999c-0.164,0.217-0.397,0.561-0.693,1.085l-2.435-4.13
	c-0.061-0.102-0.192-0.136-0.295-0.076c-0.103,0.061-0.137,0.193-0.075,0.295l2.564,4.352c-0.124,0.234-0.257,0.494-0.398,0.786
	c-1.084,2.245-0.07,3.418,0.959,5.161l-0.001,0.024c0,0,0.004-0.003,0.011-0.009c0,0,0,0,0.001,0.002V11.81
	c0.075-0.07,0.634-0.607,1.618-2.644c0.863-1.787,0.396-2.895-0.35-4.151c0-0.001,0-0.001-0.001-0.002l-2.892-4.906
	C12.632,0.004,12.5-0.03,12.397,0.03z M21.938,15.791c0,0-0.004,0.003-0.011,0.01c-0.001-0.001-0.001-0.002-0.001-0.003v0.005
	c-0.074,0.07-0.634,0.606-1.617,2.644c-0.779,1.608-0.477,2.667,0.135,3.779c0.006,0.011,0.008,0.021,0.016,0.033
	c0.351,0.572,0.052,0.748,0.052,0.748s-0.228,0.134-0.506-0.221c-0.711-1.188-1.473-2.065-3.378-2.171
	c-2.258-0.125-2.998,0.104-3.096,0.135l-0.004-0.002c0.001,0.001,0.002,0.002,0.002,0.003c-0.009,0.003-0.014,0.004-0.014,0.004
	l0.022,0.01c1.025,1.745,1.561,3.201,4.051,3.339c0.956,0.053,1.637,0.042,2.115,0.011l0.004,0.004
	c0.96,0.073,1.519,0.313,3.121,3.882c-0.006-0.011,0.464-0.273,0.464-0.273s0.458-0.283,0.464-0.273
	c-2.345-3.13-2.285-3.735-1.885-4.609c0.26-0.404,0.603-0.998,1.022-1.868c1.085-2.245,0.07-3.418-0.959-5.16L21.938,15.791z"/>
</svg>
