<?xml version="1.0" encoding="utf-8"?>
<!-- Generator: Adobe Illustrator 16.0.3, SVG Export Plug-In . SVG Version: 6.00 Build 0)  -->
<!DOCTYPE svg PUBLIC "-//W3C//DTD SVG 1.1//EN" "http://www.w3.org/Graphics/SVG/1.1/DTD/svg11.dtd">
<svg version="1.1" id="Layer_1" xmlns="http://www.w3.org/2000/svg" xmlns:xlink="http://www.w3.org/1999/xlink" x="0px" y="0px"
	 width="28px" height="28px" viewBox="0 0 28 28" style="enable-background:new 0 0 28 28;" xml:space="preserve">
<style type="text/css">
<![CDATA[
	.st0{fill:#333333;}
]]>
</style>
<path class="st0" d="M19.032,26.811h-1.684c-1.146-0.376-2.116-1.284-2.721-2.506v-5.144c0.652-0.186,1.158-0.648,1.326-1.232
	c4.682-1.093,6.77-6.2,4.687-12.34C20.062,3.579,19.276,1.685,18.509,0c-3.004,0-6.012,0-9.018,0
	C8.726,1.685,7.937,3.579,7.36,5.589c-2.086,6.14,0.004,11.247,4.687,12.34c0.167,0.584,0.672,1.047,1.325,1.232v5.141
	c-0.605,1.224-1.574,2.133-2.72,2.509H8.969c-0.226,0-0.411,0.267-0.411,0.596S8.743,28,8.969,28h10.063
	c0.227,0,0.41-0.265,0.41-0.594S19.259,26.811,19.032,26.811z M9.038,14.584c-1.484-2.072-1.676-5.209-0.522-8.602
	C9.038,4.167,9.724,2.487,10.28,1.22h7.439c0.557,1.263,1.238,2.933,1.748,4.704c1.168,3.454,0.978,6.588-0.508,8.66
	C17.862,16.12,16.147,16.93,14,16.93C11.854,16.93,10.138,16.12,9.038,14.584z M18.872,8.668c0.313,2.1,0.015,3.929-0.902,5.208
	c-0.873,1.217-2.209,1.835-3.97,1.835s-3.097-0.618-3.972-1.835c-0.924-1.294-1.229-3.127-0.916-5.208H18.872z"/>
</svg>
